<svg xmlns="http://www.w3.org/2000/svg" width="80mm" height="80mm" viewBox="0 0 226.8 226.8"><defs><style>.a{fill:#fff;}.b{fill:#231f20;}</style></defs><title>Loyalty_Stamp_12_BLACK</title><rect class="a" width="226.8" height="226.77"/><text></text><path class="b" d="M137,139.9a25.6,25.6,0,0,1-9.4,3.8V132.3h-7.1a4.7,4.7,0,0,1-4.7,4.7l-63.8-3.4a22.4,22.4,0,1,0,0,44.7l63.8-3.4a4.7,4.7,0,0,1,4.7,4.7h7.1v-12a49.1,49.1,0,0,0,21.2-7.1l2.4.2h2.4v9.4a9.5,9.5,0,0,0,9.4,9.4V189h9.4v-9.4a9.5,9.5,0,0,0,9.4-9.4v-9.4h2.4a14.2,14.2,0,0,0,14.2-14.2V122.8H137Zm-23.6,20.9-62.2,3.4h-.5a8.2,8.2,0,0,1,0-16.4h.5l62.2,3.4Zm59.1,9.3H163v-9.4h9.4Zm-26-37.8h23.6V137h14.2v-4.7H189v14.2a4.7,4.7,0,0,1-4.7,4.7H151.2a4.7,4.7,0,0,1-4.7-4.7Zm-6.9,22.3a39.8,39.8,0,0,1-12,3.4v-4.8a35.1,35.1,0,0,0,10-2.9A14.1,14.1,0,0,0,139.6,154.6Z" transform="translate(0 0)"/><path class="b" d="M193.7,106.3a9.4,9.4,0,0,1-9.4-9.4V94.8a79.1,79.1,0,0,1,2.4-19.2h0A79.1,79.1,0,0,0,189,56.4a18.6,18.6,0,0,0-18.6-18.6h-5.3a18.6,18.6,0,0,0-18.6,18.6,79.1,79.1,0,0,0,2.4,19.2,79.1,79.1,0,0,1,2.4,19.2v2.1a9.4,9.4,0,0,1-9.4,9.4v7.1h52Zm-28.5-7.1c.1-.8.1-4.6.1-4.7h4.7c0,.1,0,3.9.1,4.7Zm7.6-27.1A93.6,93.6,0,0,0,170.6,85h-5.8a93,93,0,0,0-2.2-12.9,65.1,65.1,0,0,1-1.9-15.8,4.4,4.4,0,0,1,4.4-4.4h5.3a4.4,4.4,0,0,1,4.4,4.4A65,65,0,0,1,172.9,72.2Z" transform="translate(0 0)"/></svg>